<?xml version="1.0" encoding="UTF-8" standalone="no"?>
<!-- Created with Inkscape (http://www.inkscape.org/) -->

<svg
   xmlns:dc="http://purl.org/dc/elements/1.1/"
   xmlns:cc="http://creativecommons.org/ns#"
   xmlns:rdf="http://www.w3.org/1999/02/22-rdf-syntax-ns#"
   xmlns:svg="http://www.w3.org/2000/svg"
   xmlns="http://www.w3.org/2000/svg"
   xmlns:sodipodi="http://sodipodi.sourceforge.net/DTD/sodipodi-0.dtd"
   xmlns:inkscape="http://www.inkscape.org/namespaces/inkscape"
   width="640"
   height="640"
   viewBox="0 0 639.99999 639.99999"
   id="svg2"
   version="1.1"
   inkscape:version="0.91 r13725"
   sodipodi:docname="favicon.svg">
  <defs
     id="defs4" />
  <sodipodi:namedview
     id="base"
     pagecolor="#ffffff"
     bordercolor="#666666"
     borderopacity="1.0"
     inkscape:pageopacity="0"
     inkscape:pageshadow="2"
     inkscape:zoom="0.35"
     inkscape:cx="305.76312"
     inkscape:cy="748.57143"
     inkscape:document-units="px"
     inkscape:current-layer="layer1"
     showgrid="false"
     units="px"
     inkscape:window-width="1280"
     inkscape:window-height="1000"
     inkscape:window-x="1280"
     inkscape:window-y="0"
     inkscape:window-maximized="1" />
  <metadata
     id="metadata7">
    <rdf:RDF>
      <cc:Work
         rdf:about="">
        <dc:format>image/svg+xml</dc:format>
        <dc:type
           rdf:resource="http://purl.org/dc/dcmitype/StillImage" />
        <dc:title></dc:title>
      </cc:Work>
    </rdf:RDF>
  </metadata>
  <g
     inkscape:label="Layer 1"
     inkscape:groupmode="layer"
     id="layer1"
     transform="translate(0,-412.36227)">
    <ellipse
       style="fill:#b7c8b7"
       id="path4138"
       cx="190"
       cy="600.93372"
       rx="184.28572"
       ry="177.14285" />
    <path
       style="fill:#217844;fill-rule:evenodd;stroke:#000000;stroke-width:1px;stroke-linecap:butt;stroke-linejoin:miter;stroke-opacity:1"
       d="m -5.7142857,895.21941 c 12.3809524,0 24.7619047,0 37.1428567,0 3.809524,0 7.619048,0 11.428572,0 1.904762,0 3.828667,-0.26937 5.714286,0 4.807401,0.68677 9.467005,2.25481 14.285714,2.85715 2.83508,0.35438 5.769769,-0.56034 8.571428,0 4.773098,0.95462 24.035731,7.33928 31.428569,8.57142 30.49377,5.0823 61.16428,7.80051 91.42857,14.28572 2.94484,0.63104 5.71429,1.90476 8.57143,2.85714 3.80953,0 7.69303,-0.74711 11.42857,0 1.32072,0.26414 1.73648,2.11004 2.85715,2.85714 1.77192,1.18129 3.69398,2.18371 5.71428,2.85715 0.90351,0.30117 1.90476,0 2.85715,0 4.7619,0.95238 9.82215,0.94419 14.28571,2.85714 2.47594,1.06112 3.25271,4.62025 5.71429,5.71429 0.57277,0.25456 26.41459,7.73576 31.42857,8.57142 7.57387,1.26232 15.30265,1.4836 22.85714,2.85715 2.96311,0.53875 5.57816,2.52455 8.57143,2.85714 7.49107,0.83234 20.15579,0 28.57143,0 3.80952,0 7.73279,-0.92395 11.42857,0 1.30665,0.32666 1.57939,2.43123 2.85714,2.85714 1.80702,0.60234 3.80953,0 5.71429,0 1.90476,0 3.80952,0 5.71428,0 7.61905,0 15.2381,0 22.85715,0 10.91394,0 0.44778,-0.60234 14.28571,2.85715 0.92395,0.23098 1.90476,0 2.85714,0 5.71429,0 11.42857,0 17.14286,0 2.85714,0 5.71429,0 8.57143,0 0.95238,0 1.9332,-0.23099 2.85714,0 2.92177,0.73044 5.64966,2.1267 8.57143,2.85714 0.92395,0.23098 1.90476,0 2.85714,0 3.80953,0 7.67088,-0.62628 11.42857,0 2.10062,0.3501 3.73702,2.06623 5.71429,2.85714 2.79629,1.11852 5.64966,2.1267 8.57143,2.85714 2.44438,0.6111 11.42997,0 14.28571,0 0.95238,0 1.9332,-0.23098 2.85715,0 2.92177,0.73045 5.61822,2.26651 8.57142,2.85715 3.73555,0.74711 7.61905,0 11.42858,0 5.71428,0 11.42857,0 17.14285,0 1.2019,0 16.29293,0.42496 17.14286,0 1.20468,-0.60234 1.57939,-2.43123 2.85714,-2.85715 1.80702,-0.60233 3.80953,0 5.71429,0 0.95238,0 2.00531,0.42592 2.85714,0 1.20468,-0.60233 1.65247,-2.2548 2.85714,-2.85714 0.85184,-0.42592 2.18371,0.67344 2.85715,0 0.67343,-0.67343 -0.67344,-2.18371 0,-2.85714 0.67343,-0.67344 2.0053,0.42592 2.85714,0 1.20468,-0.60234 1.55049,-2.53048 2.85714,-2.85714 2.77184,-0.69296 5.71429,0 8.57143,0 1.90476,0 3.80953,0 5.71429,0 3.80952,0 7.61904,0 11.42857,0 0.95238,0 1.90476,0 2.85714,0 0.95238,0 2.00531,-0.42592 2.85714,0 1.20468,0.60233 1.73648,2.11003 2.85715,2.85714 1.77192,1.18128 4.20844,1.35129 5.71428,2.85714 0.67344,0.67344 -0.42591,2.00531 0,2.85714 0.60234,1.20468 2.25481,1.65247 2.85715,2.85715 0.42591,0.85183 -0.67344,2.1837 0,2.85714 0.67343,0.67344 2.1837,-0.67344 2.85714,0 1.50585,1.50585 1.67586,3.94236 2.85714,5.71429 0.74711,1.12066 2.25481,1.65246 2.85714,2.85714 0.85184,1.70367 -1.34687,4.36741 0,5.71428 0.67344,0.67344 2.18371,-0.67343 2.85715,0 0.67343,0.67344 -0.67344,2.18371 0,2.85715 0.67343,0.67343 2.1837,-0.67344 2.85714,0 7.32872,7.32872 -2.39766,6.97299 8.57143,14.28567 0.79243,0.5283 1.95363,-0.3011 2.85714,0 2.02031,0.6735 3.69398,2.1837 5.71429,2.8572 2.29971,0.7666 9.60279,-0.9129 11.42857,0 1.20468,0.6023 1.73648,2.11 2.85714,2.8571 1.77193,1.1813 3.94236,1.6759 5.71429,2.8572 1.12066,0.7471 1.90476,1.9047 2.85714,2.8571 2.85714,2.8572 5.71429,5.7143 8.57143,8.5714 0.95238,0.9524 2.04902,1.7797 2.85714,2.8572 2.06032,2.7471 3.65397,5.8243 5.71429,8.5714 0.80812,1.0775 2.2548,1.6525 2.85714,2.8572 1.34687,2.6937 1.73863,5.7751 2.85714,8.5714 0.79091,1.9773 2.34064,3.6483 2.85715,5.7143 0.46197,1.8479 -0.46198,3.8664 0,5.7143 0.5165,2.066 2.34064,3.6482 2.85714,5.7142 0.59242,2.3697 -0.93465,12.4165 0,14.2858 0.42592,0.8518 2.85714,-0.9524 2.85714,0 0,1.9047 -3.94576,-0.7075 -5.71428,0 -3.95455,1.5818 -7.61905,3.8095 -11.42858,5.7142 -1.90476,0.9524 -3.88817,1.7615 -5.71428,2.8572 -2.94451,1.7667 -5.41522,4.3616 -8.57143,5.7143 -3.60927,1.5468 -7.78266,1.3987 -11.42857,2.8571 -1.25054,0.5002 -1.57939,2.4312 -2.85714,2.8572 -1.80702,0.6023 -3.90727,-0.6024 -5.71429,0 -1.27775,0.4259 -1.65247,2.2548 -2.85714,2.8571 -1.70367,0.8518 -3.90727,-0.6023 -5.71429,0 -2.0203,0.6734 -3.69398,2.1837 -5.71428,2.8571 -0.90351,0.3012 -1.91772,-0.1565 -2.85715,0 -4.79013,0.7984 -9.467,2.2548 -14.28571,2.8572 -2.83508,0.3544 -5.78232,-0.6198 -8.57143,0 -5.87995,1.3066 -11.23644,4.533 -17.14286,5.7143 -3.73554,0.7471 -7.77971,-1.0947 -11.42857,0 -6.11933,1.8358 -11.16087,6.3281 -17.14286,8.5714 -1.78348,0.6688 -3.80952,0 -5.71428,0 -0.95238,0 -2.00531,-0.4259 -2.85714,0 -1.20468,0.6023 -1.65247,2.2548 -2.85715,2.8571 -0.85183,0.426 -1.95363,-0.3011 -2.85714,0 -2.02031,0.6735 -3.69398,2.1837 -5.71429,2.8572 -0.9035,0.3011 -1.95363,-0.3012 -2.85714,0 -2.0203,0.6734 -3.69398,2.1837 -5.71428,2.8571 -1.84774,0.6159 -11.166,0 -14.28572,0 -5.71428,0 -11.42857,0 -17.14286,0 -2.85714,0 -5.79959,0.693 -8.57142,0 -1.30666,-0.3266 -1.65247,-2.2548 -2.85715,-2.8571 -12.08771,-6.0439 -4.4787,-1.2227 -14.28571,-2.8572 -3.87334,-0.6455 -7.78266,-1.3987 -11.42857,-2.8571 -1.25054,-0.5002 -1.55049,-2.5305 -2.85715,-2.8571 -3.69578,-0.924 -7.73279,0.9239 -11.42857,0 -2.92177,-0.7305 -5.64965,-2.1267 -8.57143,-2.8572 -0.92394,-0.231 -1.95363,0.3012 -2.85714,0 -2.0203,-0.6734 -3.69398,-2.1837 -5.71428,-2.8571 -0.90351,-0.3012 -2.00531,0.4259 -2.85715,0 -3.07133,-1.5357 -5.50009,-4.1787 -8.57143,-5.7143 -0.85183,-0.4259 -1.90476,0 -2.85714,0 -3.80952,-1.9048 -7.77636,-3.523 -11.42857,-5.7143 -1.15493,-0.693 -1.55049,-2.5305 -2.85714,-2.8571 -15.2381,-3.8096 -3.80953,1.2698 -11.42857,0 -4.76191,-0.9524 -9.52381,-1.9048 -14.28572,-2.8572 -1.90476,-0.9524 -3.64828,-2.3406 -5.71428,-2.8571 -5.62014,-1.4051 -11.52272,-1.4521 -17.14286,-2.8572 -2.06601,-0.5165 -3.80953,-1.9047 -5.71429,-2.8571 -4.7619,-1.9048 -9.27911,-4.6017 -14.28571,-5.7143 -3.99035,-0.8867 -14.58755,0 -20,0 -1.90476,0 -3.8664,0.462 -5.71429,0 -23.56638,-5.8916 27.17823,-0.4723 -20,-5.7143 -3.78622,-0.4207 -7.68049,0.6815 -11.42857,0 -6.8216,-1.2403 -13.27358,-4.0327 -20,-5.7143 -14.33155,-3.5829 -27.86143,-4.6431 -42.85714,-5.7143 -3.79984,-0.2714 -7.61905,0 -11.42857,0 -7.61905,0 -15.2381,0 -22.85715,0 -5.71428,0 -11.42857,0 -17.14285,0 -0.95238,0 -1.95364,-0.3011 -2.85715,0 -2.0203,0.6735 -3.69398,2.1837 -5.71428,2.8572 -1.7933,0.5977 -9.12847,0 -11.42857,0 -7.61905,0 -15.2381,0 -22.85715,0 -23.80952,0 -47.619043,0 -71.428567,0 -15.238095,0 -30.476191,0 -45.7142859,0 -1.0492473,0 -11.3135961,0.115 -11.4285711,0 -0.275584,-0.2756 0.23121,-4.5583 0,-5.7143 -0.770103,-3.8505 -1.398778,-7.7827 -2.857143,-11.4286 -0.500215,-1.2505 -1.904762,-1.9047 -2.857143,-2.8571 -1.904762,-3.8095 -4.367416,-7.388 -5.714286,-11.4286 -0.602338,-1.807 0.851836,-4.0106 0,-5.7143 -11.003143,-22.0063 -4.745032,-5.3743 -11.428571,-14.2857 -2.060315,-2.7471 -3.286181,-6.1433 -5.714286,-8.5714 -0.673435,-0.6735 -1.904762,0 -2.857143,0 -0.952381,-1.9048 -2.183708,-3.694 -2.857143,-5.7143 -0.655078,-1.96524 0.842886,-6.88566 0,-8.57143 -0.602338,-1.20468 -2.254804,-1.65247 -2.857142,-2.85714 -0.434763,-0.86953 0,-7.2847 0,-8.57143 0,-7.61905 0,-15.2381 0,-22.85714 0,-0.95239 0,-1.90477 0,-2.85715 0,-0.95238 -0.673435,-2.1837 0,-2.85714 0.673435,-0.67344 2.183707,0.67344 2.857142,0 1.34687,-1.34687 -1.34687,-4.36742 0,-5.71429 0.673435,-0.67343 2.183708,0.67344 2.857143,0 1.428572,-1.42857 -1.428571,-7.14285 0,-8.57142 0.673435,-0.67344 2.183708,0.67343 2.857143,0 0.673435,-0.67344 -0.425918,-2.00531 0,-2.85715 0.602339,-1.20467 2.254804,-1.65246 2.857143,-2.85714 0.425918,-0.85184 -0.425918,-2.00531 0,-2.85714 0.602339,-1.20468 2.254804,-1.65247 2.857143,-2.85715 0.425918,-0.85183 -0.425918,-2.0053 0,-2.85714 0.602338,-1.20468 2.254804,-1.65246 2.857143,-2.85714 0.425917,-0.85184 -0.425918,-2.00531 0,-2.85714 0.379301,-0.75861 7.812826,-8.19213 8.571428,-8.57143 0.851836,-0.42592 2.005308,0.42591 2.857143,0 1.204677,-0.60234 1.652466,-2.25481 2.857143,-2.85715 0.851835,-0.42591 2.113458,0.59495 2.857143,0 4.206915,-3.36553 7.6190475,-7.61904 11.4285713,-11.42857 z"
       id="path4146"
       inkscape:connector-curvature="0" />
    <path
       style="fill:#dbe3db;fill-rule:evenodd;stroke:#000000;stroke-width:1px;stroke-linecap:butt;stroke-linejoin:miter;stroke-opacity:1"
       d="m 34.285714,512.36227 c 1.255686,-2.07011 19.112383,1.24825 22.857143,0 1.277753,-0.42592 1.652466,-2.2548 2.857143,-2.85714 1.51497,-0.75749 12.341997,0.6479 14.285714,0 1.277753,-0.42592 1.652466,-2.25481 2.857143,-2.85715 1.549965,-0.77498 10.646794,0.78178 11.428572,0 0.673435,-0.67343 -0.673435,-2.1837 0,-2.85714 0.76385,-0.76385 12.463241,0.91124 14.285711,0 1.20468,-0.60234 1.65247,-2.2548 2.85715,-2.85714 0.85183,-0.42592 1.93319,0.23099 2.85714,0 2.92177,-0.73044 5.64966,-2.1267 8.57143,-2.85714 2.54704,-0.63677 12.60631,0.8397 14.28571,0 1.20468,-0.60234 1.65247,-2.25481 2.85714,-2.85715 2.28572,-1.14285 6.28572,1.14286 8.57143,0 1.20468,-0.60234 1.65247,-2.2548 2.85715,-2.85714 1.80248,-0.90124 12.48323,0.90124 14.28571,0 1.20468,-0.60234 1.55049,-2.53048 2.85714,-2.85714 2.77184,-0.69296 5.71429,0 8.57143,0 0.95238,0 1.95364,0.30117 2.85714,0 2.02031,-0.67344 3.80953,-1.90476 5.71429,-2.85715 14.28571,10e-6 28.57143,0 42.85714,0 2.85715,0 5.71429,0 8.57143,0 0.95238,0 2.00531,-0.42591 2.85714,0 1.20468,0.60234 1.65247,2.25481 2.85715,2.85715 0.85183,0.42591 1.90476,0 2.85714,0 1.03452,0 15.14103,-0.50046 17.14286,0 2.066,0.5165 3.69398,2.1837 5.71428,2.85714 1.11178,0.37059 8.12804,-0.44339 8.57143,0 0.67344,0.67344 -0.67343,2.18371 0,2.85714 0.44339,0.44339 7.45965,-0.37059 8.57143,0 20.69548,6.89849 -4.50459,-0.82372 8.57143,5.71429 4.58727,2.29364 9.57167,3.69398 14.28571,5.71428 1.9574,0.83889 3.73702,2.06624 5.71429,2.85715 2.79629,1.11851 5.87769,1.51027 8.57143,2.85714 1.20467,0.60234 1.65246,2.2548 2.85714,2.85714 1.70367,0.85184 4.36742,-1.34687 5.71429,0 0.67343,0.67344 -0.42592,2.00531 0,2.85715 0.60233,1.20467 1.90476,1.90476 2.85714,2.85714 0.95238,0.95238 1.65246,2.2548 2.85714,2.85714 0.85184,0.42592 2.00531,-0.42592 2.85714,0 1.20468,0.60234 1.65247,2.25481 2.85715,2.85714 1.79577,0.89789 9.63279,-0.89788 11.42857,0 1.20468,0.60234 1.65246,2.25481 2.85714,2.85715 0.86953,0.43476 7.28469,0 8.57143,0 6.66667,0 13.33333,0 20,0 3.80952,0 7.61905,0 11.42857,0 0.95238,0 2.18371,-0.67344 2.85714,0 0.67344,0.67343 -0.85183,2.43122 0,2.85714 1.70368,0.85184 3.80953,0 5.71429,0 2.85714,0 5.8609,-0.90351 8.57143,0 0.90351,0.30117 -0.67344,2.18371 0,2.85714 0.77609,0.7761 14.28571,-0.93332 14.28571,0 0,1.90476 -7.61904,0 -5.71428,0 5.71428,0 11.42857,0 17.14285,0 0.95239,0 1.90477,0 2.85715,0 0.95238,0 2.0053,-0.42591 2.85714,0 1.20468,0.60234 1.65247,2.25481 2.85714,2.85715 0.64037,0.32018 10.74963,0 11.42857,0 1.90477,0 3.80953,0 5.71429,0 0.95238,0 2.85714,-0.95239 2.85714,0 0,0.95238 -3.80952,0 -2.85714,0 1.90476,0 3.80952,0 5.71429,0 2.85714,0 5.8609,-0.90351 8.57142,0 1.27776,0.42591 1.73648,2.11003 2.85715,2.85714 1.77192,1.18128 3.69398,2.18371 5.71428,2.85714 0.90351,0.30117 2.18371,-0.67343 2.85715,0 0.67343,0.67344 -0.67344,2.18371 0,2.85714 0.67343,0.67344 2.1837,-0.67343 2.85714,0 0.67343,0.67344 -0.42592,2.00531 0,2.85715 0.60234,1.20467 2.2548,1.65246 2.85714,2.85714 0.42592,0.85184 -0.67343,2.18371 0,2.85714 0.67344,0.67344 2.18371,-0.67343 2.85714,0 0.11498,0.11498 0,10.37933 0,11.42857 0,0.69294 0.0919,8.47955 0,8.57143 -0.67343,0.67344 -2.1837,-0.67343 -2.85714,0 -0.67343,0.67344 0.67344,2.18371 0,2.85715 -0.67343,0.67343 -2.00531,-0.42592 -2.85714,0 -1.20468,0.60233 -1.90476,1.90476 -2.85714,2.85714 -1.90477,0 -3.8664,-0.46197 -5.71429,0 -13.79698,3.44924 0.1416,1.35777 -8.57143,5.71428 -0.85183,0.42592 -2.85714,0.95239 -2.85714,0 0,-0.95238 3.80952,0 2.85714,0 -1.59636,0 -12.59964,-0.56202 -14.28571,0 -2.02031,0.67344 -3.69398,2.18371 -5.71429,2.85715 -1.79329,0.59776 -9.12847,0 -11.42857,0 -1.87692,0 -10.75671,0.33593 -11.42857,0 -0.85184,-0.42592 0.67343,-2.18371 0,-2.85715 -0.67344,-0.67343 -1.90476,0 -2.85714,0 -6.66667,0 -13.33334,0 -20,0 -10.47619,0 -20.95239,0 -31.42858,0 -1.98725,0 -13.25247,0.51662 -14.28571,0 -1.20468,-0.60233 -1.65247,-2.2548 -2.85714,-2.85714 -1.80249,-0.90124 -12.48323,0.90124 -14.28572,0 -1.20467,-0.60234 -1.65246,-2.2548 -2.85714,-2.85714 -0.3189,-0.15945 -13.96681,-0.15945 -14.28571,0 -1.20468,0.60234 -1.65247,2.2548 -2.85715,2.85714 -1.70367,0.85184 -4.36741,-1.34687 -5.71428,0 -0.67344,0.67344 0.67343,2.18371 0,2.85714 -0.68752,0.68752 -10.74106,-0.68751 -11.42857,0 -0.67344,0.67344 0.67343,2.18371 0,2.85715 -0.67344,0.67343 -1.90477,0 -2.85715,0 -0.95238,0 -1.90476,0 -2.85714,0 -0.95238,0 -2.85714,0.95238 -2.85714,0 0,-0.95238 3.80952,0 2.85714,0 -3.80952,0 -7.61905,0 -11.42857,0 -6.66667,0 -13.33333,0 -20,0 -5.71429,0 -11.42857,0 -17.14286,0 -0.95238,0 -1.90476,0 -2.85714,0 -0.95238,0 -2.00531,0.42591 -2.85714,0 -1.20468,-0.60234 -1.65247,-2.25481 -2.85715,-2.85715 -0.85183,-0.42591 -1.95363,0.30117 -2.85714,0 -4.04061,-1.34687 -7.29656,-4.68128 -11.42857,-5.71428 -2.77184,-0.69296 -5.86091,0.90351 -8.57143,0 -1.90476,-0.95238 -3.80952,-1.90476 -5.71429,-2.85714 -0.95238,0 -1.95363,0.30117 -2.85714,0 -20.69547,-6.8985 4.50459,0.82372 -8.57143,-5.71429 -2.02262,-8.7116 -7.91636,-1.10104 -11.42857,-2.85714 -1.20468,-0.60234 -1.65246,-2.25481 -2.85714,-2.85715 -1.70367,-0.85183 -4.36742,1.34687 -5.71429,0 -0.67343,-0.67343 0,-1.90476 0,-2.85714 -1.90476,-0.95238 -3.69398,-2.18371 -5.71428,-2.85714 -0.90351,-0.30117 -2.18371,0.67343 -2.85715,0 -0.67343,-0.67344 0.67344,-2.18371 0,-2.85714 -0.67343,-0.67344 -1.90476,0 -2.85714,0 -1.90476,0 -3.80952,0 -5.71428,0 -5.71429,0 -11.42858,0 -17.14286,0 -1.90476,0 -3.80953,0 -5.71429,0 -0.95238,0 -2.0053,0.42591 -2.85714,0 -1.20468,-0.60234 -1.65247,-2.25481 -2.85714,-2.85715 -1.70367,-0.85183 -3.8664,0.46198 -5.71429,0 -2.92177,-0.73044 -5.61822,-2.2665 -8.57143,-2.85714 -11.76697,-2.35339 2.46876,3.92232 -17.14285,0 -3.53058,-3.53058 -1.51028,-2.85714 -5.71429,-2.85714 -2.857143,0 -5.799593,0.69296 -8.571429,0 -2.066004,-0.5165 -3.648281,-2.34064 -5.714285,-2.85715 -2.771836,-0.69295 -5.860905,0.90351 -8.571429,0 -2.020305,-0.67343 -3.69398,-2.1837 -5.714286,-2.85714 -1.807015,-0.60234 -4.010614,0.85184 -5.714285,0 -1.204677,-0.60234 -1.57939,-2.43122 -2.857143,-2.85714 -1.807016,-0.60234 -3.809524,0 -5.714286,0 -0.952381,0 -2.005307,0.42592 -2.857143,0 -1.204677,-0.60234 -1.652465,-2.25481 -2.857143,-2.85714 -0.851835,-0.42592 -2.183707,0.67343 -2.857142,0 -0.673435,-0.67344 0.673435,-2.18371 0,-2.85715 -1.34687,-1.34687 -4.367416,1.34687 -5.714286,0 -0.673435,-0.67343 0.673435,-2.1837 0,-2.85714 -0.673435,-0.67344 -2.005308,0.42592 -2.857143,0 -4.850526,-2.42526 -0.863759,-3.28902 -5.714286,-5.71429 -0.851835,-0.42591 -2.183708,0.67344 -2.857143,0 -0.673435,-0.67343 -0.186777,-1.92325 0,-2.85714 0.770103,-3.85051 1.904762,-7.61905 2.857143,-11.42857 z"
       id="path4148"
       inkscape:connector-curvature="0" />
    <path
       style="fill:#f2f2f2;fill-rule:evenodd;stroke:#000000;stroke-width:1px;stroke-linecap:butt;stroke-linejoin:miter;stroke-opacity:1"
       d="m 260,675.21941 c 4.7619,0 9.52381,0 14.28571,0 0.95239,0 2.18371,0.67343 2.85715,0 0.67343,-0.67344 -0.67344,-2.18371 0,-2.85715 0.67343,-0.67343 1.90476,0 2.85714,0 0.95238,0 1.90476,0 2.85714,0 0.95238,0 1.90476,0 2.85715,0 0.95238,0 2.85714,-0.95238 2.85714,0 0,0.95238 -3.80953,0 -2.85714,0 1.90476,0 3.80952,0 5.71428,0 0.95238,0 1.90476,0 2.85714,0 1.79169,0 11.07565,0.35293 11.42858,0 0.67343,-0.67343 -0.67344,-2.1837 0,-2.85714 0.67343,-0.67344 1.90476,0 2.85714,0 6.66667,0 13.33333,0 20,0 0.95238,0 1.90476,0 2.85714,0 0.95238,0 2.18371,0.67344 2.85714,0 0.67344,-0.67344 -0.85183,-2.43123 0,-2.85714 3.40735,-1.70367 7.81454,1.20467 11.42858,0 1.27775,-0.42592 1.65246,-2.25481 2.85714,-2.85715 1.57229,-0.78614 14.90916,0.74457 17.14286,0 1.27775,-0.42591 1.65246,-2.2548 2.85714,-2.85714 0.85183,-0.42592 2.00531,0.42592 2.85714,0 1.20468,-0.60234 1.65247,-2.2548 2.85714,-2.85714 0.85184,-0.42592 1.90477,0 2.85715,0 2.02515,0 16.40414,0.36936 17.14285,0 1.20468,-0.60234 1.65247,-2.25481 2.85715,-2.85714 1.54996,-0.77499 10.64679,0.78177 11.42857,0 3.80952,-3.80953 -4.76191,-2.85715 2.85714,-2.85715 1.90476,0 3.80953,0 5.71429,0 0.95238,0 2.85714,-0.95238 2.85714,0 0,0.95238 -3.80952,0 -2.85714,0 1.90476,0 3.80952,0 5.71428,0 0.95238,0 2.18371,0.67344 2.85715,0 0.67343,-0.67343 -0.67344,-2.1837 0,-2.85714 0.67343,-0.67344 1.90476,0 2.85714,0 4.7619,0 9.52381,0 14.28571,0 0.95238,0 2.18371,0.67344 2.85715,0 0.67343,-0.67344 -0.67344,-2.18371 0,-2.85714 0.67343,-0.67344 1.90476,0 2.85714,0 4.7619,0 9.52381,0 14.28571,0 1.90476,0 3.80953,0 5.71429,0 0.95238,0 1.95363,-0.30117 2.85714,0 4.04061,1.34687 7.29656,4.68128 11.42857,5.71428 13.00653,0 0.16341,-1.34687 8.57143,2.85715 1.70367,0.85183 4.01062,-0.85184 5.71429,0 1.20467,0.60233 1.65246,2.2548 2.85714,2.85714 0.85184,0.42592 1.95363,-0.30117 2.85714,0 2.02031,0.67343 3.69398,2.18371 5.71429,2.85714 1.13416,0.37805 11.42857,-0.36537 11.42857,0 0,0.95238 -3.80952,0 -2.85714,0 11.11595,0 5.23868,0 17.14285,0 1.04925,0 11.3136,-0.11497 11.42858,0 0.67343,0.67344 -0.67344,2.18371 0,2.85714 0.68751,0.68752 10.74105,-0.68751 11.42857,0 0.67343,0.67344 -0.67344,2.18371 0,2.85715 0.67343,0.67343 2.0053,-0.42592 2.85714,0 1.20468,0.60234 1.65247,2.2548 2.85714,2.85714 0.85184,0.42592 2.18371,-0.67344 2.85715,0 0.67343,0.67344 -0.67344,2.18371 0,2.85714 0.67343,0.67344 2.0053,-0.42591 2.85714,0 3.42857,1.71429 5.14286,6.85715 8.57143,8.57143 2.69374,1.34687 5.64965,2.1267 8.57143,2.85714 0.92394,0.23099 2.06471,-0.52828 2.85714,0 2.24133,1.49422 3.55929,4.09805 5.71428,5.71429 3.82887,2.87165 10.1699,4.06796 14.28572,5.71429 3.95455,1.58181 7.38796,4.36741 11.42857,5.71428 8.50523,2.83508 -5.8623,-6.76534 8.57143,2.85714 1.12066,0.74711 1.65246,2.25481 2.85714,2.85715 1.70367,0.85183 4.36742,-1.34687 5.71429,0 0.67343,0.67343 -0.67344,2.1837 0,2.85714 0.67343,0.67344 1.90476,0 2.85714,0 5.71429,0 11.42857,0 17.14286,0 0.95238,0 1.90476,0 2.85714,0 0.95238,0 2.85714,-0.95238 2.85714,0 0,0.95238 -3.80952,0 -2.85714,0 1.90476,0 3.80952,0 5.71429,0 0.95238,0 2.0053,-0.42592 2.85714,0 1.20468,0.60234 1.90476,1.90476 2.85714,2.85714 5.61192,5.61193 5.71429,7.112 5.71429,14.28572 0,0.95238 0,1.90476 0,2.85714 0,0.95238 0.67343,2.18371 0,2.85714 -0.67344,0.67344 -2.00531,-0.42591 -2.85715,0 -1.20467,0.60234 -1.65246,2.25481 -2.85714,2.85715 -1.03324,0.51661 -12.29846,0 -14.28571,0 -6.66667,0 -13.33334,0 -20,0 -2.85715,0 -5.7996,0.69295 -8.57143,0 -6.23964,-1.55991 -10.00737,-7.15023 -14.28572,-11.42858 -0.95238,-0.95238 -1.65246,-2.2548 -2.85714,-2.85714 -1.70367,-0.85183 -4.36741,1.34687 -5.71428,0 -0.67344,-0.67343 0.67343,-2.18371 0,-2.85714 -1.34687,-1.34687 -4.36742,1.34687 -5.71429,0 -0.67344,-0.67344 0.67344,-2.18371 0,-2.85714 -0.67344,-0.67344 -2.00531,0.42591 -2.85714,0 -1.20468,-0.60234 -1.65247,-2.25481 -2.85715,-2.85715 -1.13283,-0.56641 -7.98732,0.58411 -8.57142,0 -3.80953,-3.80952 4.7619,-2.85714 -2.85715,-2.85714 -1.28673,0 -7.7019,0.43476 -8.57143,0 -2.40935,-1.20468 -3.30493,-4.50961 -5.71428,-5.71429 -1.70367,-0.85183 -5.71429,1.90477 -5.71429,0 0,-0.95238 3.70898,0.42592 2.85715,0 -2.69374,-1.34687 -5.87769,-1.51027 -8.57143,-2.85714 -1.20468,-0.60234 -1.57939,-2.43122 -2.85715,-2.85714 -1.80701,-0.60234 -3.90727,0.60234 -5.71428,0 -1.27775,-0.42592 -1.65247,-2.25481 -2.85714,-2.85714 -1.70368,-0.85184 -4.01062,0.85183 -5.71429,0 -1.20468,-0.60234 -1.57939,-2.43123 -2.85714,-2.85715 -1.80702,-0.60234 -3.80953,0 -5.71429,0 -0.95238,0 -2.00531,0.42592 -2.85714,0 -1.20468,-0.60234 -1.65247,-2.2548 -2.85714,-2.85714 -0.85184,-0.42592 -2.00531,0.42592 -2.85715,0 -1.20467,-0.60234 -1.65246,-2.2548 -2.85714,-2.85714 -0.8433,-0.42165 -17.05655,0 -20,0"
       id="path4150"
       inkscape:connector-curvature="0" />
    <path
       style="fill:#f2f2f2;fill-rule:evenodd;stroke:#000000;stroke-width:1px;stroke-linecap:butt;stroke-linejoin:miter;stroke-opacity:1"
       d="m 500,686.64798 c -9.52381,0 -19.04762,0 -28.57143,0 -0.95238,0 -1.95363,-0.30117 -2.85714,0 -2.02031,0.67343 -3.69398,2.1837 -5.71429,2.85714 -1.80701,0.60234 -3.90727,-0.60234 -5.71428,0 -20.69548,6.89849 4.50459,-0.82372 -8.57143,5.71429 -0.85184,0.42591 -2.00531,-0.42592 -2.85714,0 -2.40936,1.20467 -3.15878,4.86245 -5.71429,5.71428 -1.80702,0.60234 -3.90727,-0.60234 -5.71429,0 -2.5555,0.85184 -3.30493,4.50961 -5.71428,5.71429 -2.28572,1.14285 -6.28572,-1.14286 -8.57143,0 -1.20468,0.60234 -1.65247,2.2548 -2.85714,2.85714 -0.85184,0.42592 -1.90476,0 -2.85715,0 -1.90476,0 -3.90727,-0.60234 -5.71428,0 -1.27775,0.42592 -1.65247,2.2548 -2.85714,2.85714 -1.13284,0.56642 -7.98733,-0.5841 -8.57143,0 -0.67344,0.67344 0.85183,2.43123 0,2.85715 -2.28572,1.14285 -6.28572,-1.14286 -8.57143,0 -1.20468,0.60233 -1.65247,2.2548 -2.85714,2.85714 -0.85184,0.42592 -2.00531,-0.42592 -2.85715,0 -1.20467,0.60234 -1.57939,2.43122 -2.85714,2.85714 -8.57143,2.85714 -2.85714,-1.42857 -8.57143,0 -2.92177,0.73044 -5.64966,2.1267 -8.57143,2.85714 -1.17304,0.29326 -5.36795,-0.34633 -5.71428,0 -0.67344,0.67344 0.67343,2.18371 0,2.85715 -0.67344,0.67343 -1.90476,0 -2.85715,0 -3.11971,0 -12.43798,-0.61591 -14.28571,0 -2.02031,0.67343 -3.69398,2.1837 -5.71429,2.85714 -2.39464,0.79821 -9.53507,-0.94675 -11.42857,0 -1.20467,0.60234 -1.65246,2.2548 -2.85714,2.85714 -0.85184,0.42592 -1.90476,0 -2.85714,0 -1.90476,0 -3.8664,-0.46197 -5.71429,0 -2.066,0.5165 -3.69398,2.18371 -5.71428,2.85715 -1.80702,0.60233 -4.01062,-0.85184 -5.71429,0 -1.20468,0.60233 -1.65247,2.2548 -2.85714,2.85714 -1.70367,0.85183 -3.8664,-0.46197 -5.71429,0 -2.92177,0.73044 -5.64966,2.1267 -8.57143,2.85714 -0.92394,0.23099 -1.90476,0 -2.85714,0 -2.85714,0 -5.71429,0 -8.57143,0 -1.90476,0 -3.83544,-0.31314 -5.71428,0 -3.87334,0.64556 -7.57806,2.08704 -11.42858,2.85714 -1.36581,0.27317 -13.20839,0.35911 -14.28571,0 -1.90476,-0.95238 -3.80952,-1.90476 -5.71429,-2.85714 0,-0.95238 0.67344,-2.18371 0,-2.85714 -0.67343,-0.67344 -2.1837,0.67343 -2.85714,0 -0.67343,-0.67344 0.67344,-2.18371 0,-2.85714 -0.5841,-0.58411 -7.43859,0.56641 -8.57143,0 -1.20467,-0.60234 -1.65246,-2.25481 -2.85714,-2.85715 -0.85184,-0.42591 -2.18371,0.67344 -2.85714,0 -0.40293,-0.40293 -0.29304,-7.98535 0,-8.57143 0.60234,-1.20467 2.2548,-1.65246 2.85714,-2.85714 0.85184,-1.70367 -1.34687,-4.36741 0,-5.71428 0.67344,-0.67344 2.18371,0.67343 2.85714,0 0.67344,-0.67344 -0.67343,-2.18371 0,-2.85715 1.34687,-1.34687 4.01062,0.85184 5.71429,0 1.20468,-0.60234 1.90476,-3.80952 2.85714,-2.85714 0.95238,0.95238 -4.20401,2.85714 -2.85714,2.85714 2.12959,0 3.69398,-2.1837 5.71428,-2.85714 0.90351,-0.30117 1.90477,0 2.85715,0 0.95238,0 2.85714,-0.95238 2.85714,0 0,0.95238 -3.80952,0 -2.85714,0 3.80952,0 7.61904,0 11.42857,0 1.98726,0 13.25247,0.51662 14.28571,0 1.20468,-0.60234 1.65247,-2.2548 2.85715,-2.85714 1.03323,-0.51662 12.29845,0 14.28571,0 5.71429,0 11.42857,0 17.14286,0 0.95238,0 2.85714,-0.95238 2.85714,0 0,0.95238 -3.80952,0 -2.85714,0 1.90476,0 3.80952,0 5.71428,0 0.95238,0 1.90476,0 2.85715,0 0.95238,0 2.1837,0.67343 2.85714,0 0.67343,-0.67344 -0.67344,-2.18371 0,-2.85715 1.42857,-1.42857 7.14286,1.42858 8.57143,0 0.67343,-0.67343 -0.67344,-2.1837 0,-2.85714 0.5841,-0.5841 7.43859,0.56642 8.57143,0 1.20467,-0.60234 1.90476,-3.80952 2.85714,-2.85714 0.95238,0.95238 -2.85714,4.20401 -2.85714,2.85714 0,-2.12959 2.1837,-3.69398 2.85714,-5.71428 0.30117,-0.90351 0,-1.90477 0,-2.85715 0,-0.95238 0,-1.90476 0,-2.85714 0,-0.95238 -0.95238,-2.85714 0,-2.85714 0.95238,0 0.95238,2.85714 0,2.85714 -5.94537,0 -1.14963,-4.00677 -2.85714,-5.71429 -0.0919,-0.0919 -7.8785,0 -8.57143,0 -16.01533,0 -23.65435,0 -34.28572,0 -1.04924,0 -11.31359,-0.11497 -11.42857,0 -0.67343,0.67344 0.67344,2.18371 0,2.85715 -0.67343,0.67343 -1.90476,0 -2.85714,0 -0.95238,0 -1.90476,0 -2.85714,0 -11.42858,0 -22.85715,0 -34.28572,0 -4.79808,0 -4.31295,0.67343 -8.57143,-5.71429 -0.52828,-0.79243 0.42592,-2.00531 0,-2.85714 -0.60234,-1.20468 -2.2548,-1.65247 -2.85714,-2.85714 -0.42592,-0.85184 0,-1.90477 0,-2.85715 0,-0.95238 0,-1.90476 0,-2.85714 0,-0.95238 -0.67344,-2.18371 0,-2.85714 0.67344,-0.67344 2.85714,-0.95238 2.85714,0 0,0.95238 -3.80952,0 -2.85714,0 1.90476,0 3.80952,0 5.71429,0 0.95238,0 2.0053,0.42591 2.85714,0 1.20468,-0.60234 1.65246,-2.25481 2.85714,-2.85715 0.85184,-0.42591 1.90476,0 2.85714,0 5.71429,0 11.42858,0 17.14286,0 0.95238,0 2.18371,-0.67343 2.85714,0 0,7.61905 -0.95238,-0.95238 2.85715,2.85715 1.34687,1.34687 -1.34687,4.36741 0,5.71428 0.67343,0.67344 2.1837,-0.67343 2.85714,0 0.67344,0.67344 -0.67344,2.18371 0,2.85715 0.22942,0.22942 12.03682,0 14.28571,0"
       id="path4152"
       inkscape:connector-curvature="0" />
    <path
       style="fill:#c83737;fill-rule:evenodd;stroke:#000000;stroke-width:1px;stroke-linecap:butt;stroke-linejoin:miter;stroke-opacity:1"
       d="m 454.28571,675.21941 -77.14285,-54.28571 -102.85715,-11.42857 -125.71428,5.71428 17.14286,-42.85714 105.71428,-8.57143 60,8.57143 20,-74.28571 17.14286,8.57142 -20,62.85715 L 440,603.79084 420,500.9337 l -54.28571,-42.85714 8.57142,-22.85715 77.14286,51.42857 74.28572,-51.42857 14.28571,42.85715 -91.42857,42.85714 20,88.57143 60,-22.85715 34.28571,-111.42857 -17.14285,-42.85714 14.28571,0 20,45.71429 -17.14286,54.28571 22.85715,8.57143 31.42857,-71.42857 11.42857,17.14285 -42.85714,74.28572 -40,20 -5.71429,25.71428 -54.28571,25.71429 22.85714,148.57143 68.57143,-111.42857 11.42857,5.71428 -74.28572,122.85715 -2.85714,145.71428 25.71429,20 48.57143,0 c 0,0 -37.14286,-31.42857 0,0 37.14285,31.42857 -62.85715,22.85714 -62.85715,22.85714 l -65.71428,34.28572 c 0,0 -168.57143,8.5714 -60,-34.28572 C 505.71429,943.79084 480,915.21941 480,915.21941 L 465.71429,803.79084 Z"
       id="path4140"
       inkscape:connector-curvature="0" />
  </g>
</svg>
