<?xml version="1.0" encoding="UTF-8" standalone="no"?><!DOCTYPE svg PUBLIC "-//W3C//DTD SVG 1.1//EN" "http://www.w3.org/Graphics/SVG/1.1/DTD/svg11.dtd"><svg width="100%" height="100%" viewBox="0 0 164 70" version="1.1" xmlns="http://www.w3.org/2000/svg" xmlns:xlink="http://www.w3.org/1999/xlink" xml:space="preserve" xmlns:serif="http://www.serif.com/" style="fill-rule:evenodd;clip-rule:evenodd;stroke-linecap:round;stroke-linejoin:round;stroke-miterlimit:1.5;"><rect id="Tree-and-Moon" serif:id="Tree and Moon" x="0" y="0" width="163.2" height="69.12" style="fill:none;"/><clipPath id="_clip1"><rect x="0" y="0" width="163.2" height="69.12"/></clipPath><g clip-path="url(#_clip1)"><path d="M-2.386,36.352c4.459,-4.837 20.989,2.019 26.751,5.3c4.743,2.7 4.963,10.935 7.823,14.384c2.398,2.892 6.435,5.468 9.338,6.309c2.616,0.759 5.636,-1.093 8.075,-1.262c2.184,-0.15 4.378,0.397 6.562,0.253c6.393,-0.421 24.058,-2.986 31.797,-2.776c5.06,0.137 9.591,4.424 14.637,4.038c7.697,-0.589 23.807,-6.814 31.546,-7.571c5.04,-0.493 10.304,1.85 14.889,3.028c4.277,1.099 10.137,3.071 12.618,4.038c0.894,0.348 1.993,0.849 2.271,1.766c0.421,1.388 2.44,6.472 0.253,6.562c-27.718,1.136 -138.8,5.93 -166.56,0.252c-11.208,-2.292 -4.458,-29.484 0,-34.321Z" style="fill:#004d27;stroke:#f00;stroke-width:0.24px;"/><path d="M123.505,54.397c-1.685,2.774 -5.425,11.847 -4.173,12.213c1.252,0.367 8.933,-10.176 11.686,-10.015c2.752,0.16 2.694,10.056 4.83,10.979c2.136,0.922 4.801,-4.953 7.985,-5.447c3.531,-0.547 13.021,3.322 13.201,2.162c0.18,-1.161 -9.448,-7.003 -12.12,-9.127c-1.391,-1.105 -3.522,-1.885 -3.912,-3.618c-0.586,-2.604 -0.557,-8.416 0.397,-12.004c0.935,-3.515 2.651,-7.323 5.328,-9.522c2.676,-2.198 7.253,-2.183 10.729,-3.667c3.92,-1.674 14.256,-6.3 12.791,-6.373c-1.466,-0.073 -22.619,6.613 -21.584,5.936c7.278,-4.762 18.834,-10.807 20.155,-13.219c0.304,-0.554 -0.987,-1.408 -1.539,-1.102c-1.855,1.029 -6.801,6.084 -9.587,7.274c-2.186,0.934 -6.16,1.713 -7.131,-0.134c-0.97,-1.846 1.654,-9.863 1.307,-10.944c-0.348,-1.081 -2.521,2.806 -3.39,4.458c-1.174,2.229 -2.111,6.099 -3.651,8.917c-1.777,3.251 -4.7,8.925 -7.011,10.588c-4.431,3.19 -6.156,2.638 -6.091,0.373c0.104,-3.618 -2.474,-9.919 -5.685,-17.412c0,0 -6.236,-6.032 -6.907,-6.257c-0.67,-0.225 1.325,3.614 2.885,4.907c1.491,1.237 3.252,4.467 1.723,5.764c-1.845,1.566 -12.454,0.932 -12.791,3.63c-0.091,0.727 10.924,0.162 13.461,0.716c1.025,0.224 1.696,1.559 1.764,2.606c0.084,1.315 -0.294,4.135 -1.255,5.286c-0.96,1.15 -2.996,1.102 -4.507,1.617c-2.227,0.76 -6.715,2.446 -8.855,2.94c-1.294,0.298 -4.665,-0.466 -3.986,0.024c0.679,0.49 5.893,3.007 8.06,2.915c2.011,-0.086 3.007,-2.914 4.942,-3.47c1.939,-0.558 4.657,-0.45 6.693,0.123c2.037,0.573 5.208,1.192 5.528,3.317c0.362,2.408 -1.806,8.538 -3.354,11.132c-1.266,2.121 -4.655,2.323 -5.936,4.434Z" style="fill:#036010;fill-opacity:0.964706;stroke:#e90000;stroke-width:0.24px;"/><path d="M66.238,35.823c-0.328,0.211 -0.665,0.413 -1.011,0.605c-8.616,4.788 -19.498,1.679 -24.285,-6.937c-4.787,-8.616 -1.678,-19.497 6.938,-24.284c8.616,-4.787 19.497,-1.679 24.284,6.937c0.192,0.346 0.372,0.696 0.539,1.048c-4.422,-6.793 -13.425,-9.104 -20.618,-5.108c-7.516,4.176 -10.228,13.669 -6.052,21.186c3.997,7.193 12.862,9.986 20.205,6.553Z" style="fill:#aff4ff;"/></g></svg>