<?xml version="1.0" standalone="no"?>
<!DOCTYPE svg PUBLIC "-//W3C//DTD SVG 20010904//EN"
 "http://www.w3.org/TR/2001/REC-SVG-20010904/DTD/svg10.dtd">
<svg version="1.0" xmlns="http://www.w3.org/2000/svg"
 width="700.000000pt" height="700.000000pt" viewBox="0 0 700.000000 700.000000"
 preserveAspectRatio="xMidYMid meet">
<metadata>
Created by potrace 1.11, written by Peter Selinger 2001-2013
</metadata>
<g transform="translate(0.000000,700.000000) scale(0.100000,-0.100000)"
fill="#000000" stroke="none">
<path d="M1998 6875 c-2 -1 -39 -5 -83 -8 -44 -4 -89 -8 -100 -11 -11 -2 -45
-7 -75 -11 -30 -4 -91 -16 -135 -27 -44 -11 -90 -22 -102 -24 -44 -8 -260 -92
-338 -131 -334 -167 -603 -407 -808 -721 -49 -75 -139 -255 -176 -352 -23 -60
-75 -245 -85 -300 -3 -19 -8 -46 -11 -59 -19 -97 -26 -366 -12 -486 47 -416
227 -805 515 -1109 332 -351 772 -566 1277 -624 78 -9 353 -9 430 0 102 12
238 37 288 52 26 8 47 12 47 10 0 -2 55 16 123 40 129 46 277 113 381 174 62
37 230 155 254 179 24 23 49 32 76 27 17 -3 36 3 54 16 22 16 38 20 79 16 36
-3 63 2 94 16 35 15 62 19 129 16 74 -2 85 0 88 15 2 12 13 17 36 17 19 0 53
7 77 15 25 9 56 13 72 9 29 -6 87 12 87 27 0 5 8 9 18 9 9 0 30 9 46 19 20 14
39 17 67 14 32 -5 39 -3 39 11 0 9 6 16 13 17 6 0 26 2 43 2 18 1 40 9 50 18
12 10 34 15 61 14 31 -2 49 3 65 17 18 15 32 18 61 14 34 -6 42 -2 75 30 29
28 43 35 65 31 22 -3 35 4 60 30 17 18 37 33 45 33 23 0 73 30 67 40 -4 6 1
10 9 10 10 0 16 -10 17 -27 1 -16 3 -37 4 -48 1 -11 6 -60 9 -108 4 -49 9 -98
11 -110 2 -12 6 -62 10 -112 3 -49 8 -103 10 -120 3 -16 7 -59 10 -95 8 -103
15 -181 20 -230 2 -25 7 -79 10 -120 3 -41 7 -95 10 -120 3 -25 7 -70 10 -100
5 -53 41 -344 50 -405 2 -16 7 -52 10 -80 3 -27 12 -95 20 -150 8 -55 17 -125
20 -155 3 -30 8 -66 10 -80 3 -14 7 -50 10 -80 3 -30 8 -68 10 -85 6 -37 11
-82 20 -160 4 -33 13 -66 19 -74 16 -21 14 -142 -4 -177 -20 -39 -84 -125
-109 -146 -69 -59 -138 -112 -171 -133 -46 -29 -133 -35 -200 -15 -30 10 -104
15 -225 16 -138 1 -191 6 -227 18 -39 14 -86 16 -259 16 -188 -1 -213 0 -230
16 -16 15 -35 17 -112 15 -287 -9 -310 -8 -418 22 -31 8 -90 18 -130 22 -97 9
-185 27 -344 72 -110 30 -136 42 -171 73 -37 34 -49 39 -130 50 -90 13 -140
31 -159 57 -7 10 -33 15 -80 15 -39 1 -87 7 -108 14 -36 13 -252 56 -342 69
-22 4 -78 12 -125 20 -47 7 -125 19 -175 25 -49 6 -101 13 -115 15 -14 2 -88
13 -165 25 -77 11 -148 23 -157 26 -9 3 -25 7 -37 9 -11 2 -76 20 -144 39 -69
20 -156 38 -193 40 -38 3 -94 10 -124 17 -34 7 -158 12 -328 13 l-272 1 0
-862 0 -863 3500 0 3500 0 0 256 c0 162 -4 253 -10 249 -5 -3 -23 1 -41 10
-17 9 -41 18 -52 21 -42 8 -72 39 -78 82 -6 46 -34 83 -55 75 -8 -3 -14 -2
-13 3 4 21 -2 34 -13 32 -8 -2 -13 8 -14 25 -1 15 -8 35 -16 45 -9 9 -23 32
-32 50 -9 17 -23 32 -31 32 -8 0 -15 6 -15 14 0 8 -6 21 -14 28 -8 8 -15 23
-17 33 -2 10 -20 27 -39 37 -19 11 -39 25 -45 32 -7 9 -57 13 -187 13 -159 1
-179 -1 -193 -17 -9 -10 -23 -16 -31 -13 -8 3 -14 -1 -14 -10 0 -20 -29 -25
-130 -23 l-85 2 -135 105 -135 105 1 205 c1 206 10 726 20 1158 l5 233 80 132
c44 72 83 138 88 146 61 101 423 698 430 709 7 11 14 9 38 -8 21 -16 39 -21
67 -18 27 3 42 -1 54 -13 11 -11 33 -17 65 -17 30 -1 55 -7 66 -17 10 -9 23
-16 29 -16 7 0 11 -6 9 -12 -1 -8 11 -14 31 -16 20 -2 32 -9 32 -18 0 -9 11
-14 33 -14 26 0 43 -11 92 -61 79 -80 119 -100 195 -98 l60 2 0 143 c0 83 -4
144 -9 144 -5 0 -13 9 -16 21 -5 15 -14 20 -35 17 -18 -2 -37 5 -52 18 -39 34
-76 54 -91 48 -8 -3 -46 10 -83 29 -38 19 -96 43 -128 53 -38 12 -75 33 -106
61 -27 24 -55 43 -64 43 -21 0 -20 9 4 45 11 17 20 33 20 37 0 8 -113 68 -127
68 -5 0 -17 -16 -27 -35 l-19 -35 -22 20 c-12 11 -29 20 -39 20 -10 0 -16 5
-14 12 4 12 -55 48 -78 48 -6 0 -14 9 -17 20 -4 17 -12 19 -66 16 -33 -2 -60
-1 -59 3 3 29 -5 30 -204 30 -178 0 -210 2 -258 20 -30 11 -56 24 -58 30 -2 6
-20 11 -40 11 -37 0 -65 11 -62 24 1 5 -2 28 -15 106 -1 8 -6 36 -9 63 l-7 47
118 56 c252 120 301 143 385 183 72 34 89 46 94 69 3 15 11 45 16 67 6 22 12
51 14 66 3 14 10 47 17 73 l12 49 219 111 219 111 83 144 c46 79 84 146 84
148 0 2 12 22 27 46 14 23 40 67 56 97 16 30 36 62 43 71 8 8 14 18 14 21 0 6
120 217 149 264 12 18 7 30 -50 117 -35 53 -66 97 -69 97 -3 0 -41 -82 -84
-183 -44 -100 -92 -209 -106 -242 -15 -33 -42 -94 -60 -135 -18 -41 -45 -103
-61 -138 -16 -35 -29 -68 -29 -74 0 -6 -8 -7 -17 -3 -10 4 -58 22 -108 40 -49
18 -97 36 -106 40 -13 5 -2 49 78 302 89 283 93 298 79 327 -8 17 -47 105 -86
196 -40 91 -84 191 -98 223 l-26 58 -78 -3 c-43 -2 -79 -7 -79 -11 0 -4 40
-111 91 -236 l91 -229 -40 -129 c-22 -70 -58 -189 -81 -263 -23 -74 -50 -164
-62 -200 -11 -36 -58 -189 -104 -339 -46 -151 -90 -278 -97 -283 -6 -4 -52
-23 -102 -42 -448 -173 -530 -203 -536 -192 -7 12 -49 199 -49 217 0 7 13 9
33 6 37 -5 77 10 77 30 0 17 44 34 92 35 21 0 43 7 49 14 6 8 20 14 30 14 11
0 19 7 19 15 0 8 7 15 15 15 12 0 15 19 15 115 0 96 -3 115 -15 115 -8 0 -15
8 -15 19 0 10 -7 24 -15 31 -8 7 -15 21 -15 31 0 12 -7 19 -20 19 -13 0 -18 5
-14 15 4 10 0 15 -14 15 -29 0 -74 21 -93 44 -15 18 -28 20 -136 18 l-119 -2
-19 77 c-10 43 -20 83 -22 89 -2 6 121 70 279 144 156 73 330 156 388 183 58
27 128 59 155 71 50 23 167 78 174 83 7 4 -153 473 -162 473 -4 0 -48 -28 -97
-62 -49 -35 -177 -124 -285 -198 -107 -74 -245 -170 -307 -212 -61 -43 -115
-78 -120 -78 -5 0 -197 126 -427 279 l-419 279 -27 -72 c-15 -39 -37 -97 -50
-128 l-23 -57 36 -30 c21 -16 66 -52 102 -80 36 -29 79 -63 95 -76 17 -13 89
-70 160 -126 215 -168 202 -153 219 -239 8 -41 18 -91 21 -110 3 -19 8 -42 10
-50 2 -8 7 -28 9 -45 3 -16 8 -42 11 -56 l6 -26 -95 -1 c-53 -1 -95 2 -95 6 5
28 -3 31 -75 26 -65 -4 -74 -3 -78 13 -5 17 -19 19 -177 18 -95 -1 -173 1
-175 4 -2 3 14 59 34 124 l38 118 -98 49 -99 50 -16 -58 c-9 -31 -17 -61 -19
-67 -1 -5 -15 10 -31 35 -134 215 -415 477 -660 617 -218 124 -506 227 -700
248 -33 4 -62 9 -66 10 -14 9 -342 27 -351 20z m2682 -1800 c0 -16 3 -17 59
-19 38 -1 44 -11 55 -89 9 -58 38 -64 -244 44 l-205 78 168 1 c142 0 167 -2
167 -15z m-550 -366 c3 -3 57 -41 120 -85 63 -44 165 -116 227 -160 l112 -79
-64 -3 c-51 -2 -63 -6 -58 -17 4 -12 -7 -15 -58 -15 -44 0 -68 -5 -81 -16 -14
-14 -38 -17 -120 -16 -74 0 -109 -3 -125 -14 -12 -8 -27 -14 -34 -14 -6 0 -22
-9 -36 -20 -48 -37 -54 -26 -27 47 28 75 78 271 89 351 6 47 10 53 29 50 11
-2 23 -6 26 -9z m1573 -732 c14 -9 33 -17 41 -17 8 0 19 -7 24 -16 7 -12 19
-15 51 -11 31 3 48 0 65 -14 13 -11 38 -19 54 -19 16 0 35 -7 42 -15 7 -8 27
-15 44 -15 17 0 39 -7 50 -15 18 -13 5 -36 -232 -422 -138 -224 -258 -417
-266 -428 -15 -20 -15 -19 -16 5 -1 14 -3 36 -6 50 -4 26 -23 150 -29 185 -12
83 -52 342 -61 400 -3 17 -7 44 -9 61 -7 49 -35 226 -41 256 -7 33 -4 33 147
33 92 0 121 -4 142 -18z"/>
<path d="M6254 1091 c4 -5 21 -20 39 -32 l32 -23 -20 23 c-22 25 -62 51 -51
32z"/>
</g>
</svg>
